Coordinates
version=1
nRows=29
nColumns=24
inDegrees=yes

Units are S.I. units (second, meters, Newtons, ...)
Angles are in degrees.

endheader
time	pelvis_tilt	pelvis_list	pelvis_rotation	pelvis_tx	pelvis_ty	pelvis_tz	hip_flexion_r	hip_adduction_r	hip_rotation_r	knee_angle_r	ankle_angle_r	subtalar_angle_r	mtp_angle_r	hip_flexion_l	hip_adduction_l	hip_rotation_l	knee_angle_l	ankle_angle_l	subtalar_angle_l	mtp_angle_l	lumbar_extension	lumbar_bending	lumbar_rotation
      0.78300000	     -7.83850127	      2.99163098	      2.24374489	     -0.39721732	      1.06430389	      0.29919267	     18.43182000	     -0.97978136	      0.87035068	    -19.74475555	     10.54964058	     -5.56104476	      4.93425903	     24.13171598	     -0.64394936	     -4.75675000	    -68.00833738	      9.03999699	      3.66393777	      2.40389855	    -11.45499993	      1.27294000	      1.26227414
      0.78716667	     -7.80104357	      3.11980752	      2.13341352	     -0.39227234	      1.06504388	      0.29962676	     18.00550017	     -1.06956601	      0.93360705	    -19.53153743	     10.66133004	     -5.48599113	      4.92779028	     24.56012316	     -0.55373666	     -4.96555225	    -67.58872746	      9.37899793	      3.91028424	      2.43322641	    -11.47461385	      1.06688504	      1.35333052
      0.79133333	     -7.75012000	      3.22824298	      2.02202969	     -0.38732485	      1.06575962	      0.30005759	     17.55909715	     -1.13965267	      0.99056820	    -19.30524536	     10.82366704	     -5.35738822	      4.91069220	     24.96830964	     -0.49130037	     -5.17337683	    -67.13658635	      9.67811782	      4.22256007	      2.48845166	    -11.51862708	      0.87265507	      1.63570746
      0.79550000	     -7.68702518	      3.35114906	      1.89770481	     -0.38239863	      1.06648321	      0.30049190	     17.10597741	     -1.22413656	      1.06062276	    -19.08497294	     10.95253192	     -5.25617653	      4.89035579	     25.34714347	     -0.41491837	     -5.39311794	    -66.63323978	      9.98636378	      4.49212994	      2.54816102	    -11.57687805	      0.66734405	      1.84518182
      0.79966667	     -7.66043087	      3.47508819	      1.77047574	     -0.37746091	      1.06709956	      0.30093688	     16.69619878	     -1.30945026	      1.14214591	    -18.87245328	     11.06557451	     -5.17993531	      4.88387296	     25.75484043	     -0.34118905	     -5.62160030	    -66.09335563	     10.27654031	      4.73587496	      2.57768506	    -11.58262683	      0.46056325	      1.93168499
      0.80383333	     -7.59220435	      3.57718456	      1.64387295	     -0.37253085	      1.06775832	      0.30135434	     16.23355867	     -1.37528604	      1.20797357	    -18.64090908	     11.21866171	     -5.06872426	      4.86767709	     26.11012592	     -0.29258726	     -5.84132492	    -65.51989529	     10.54388993	      5.02637062	      2.63104743	    -11.64391418	      0.28211900	      2.20810361
      0.80800000	     -7.56855770	      3.69450446	      1.50990452	     -0.36760784	      1.06829943	      0.30176456	     15.83201657	     -1.45864922	      1.28980801	    -18.43322664	     11.33722756	     -4.98887142	      4.85716422	     26.49867481	     -0.22510254	     -6.06704101	    -64.90211542	     10.80687824	      5.26469030	      2.66896521	    -11.64595395	      0.10268905	      2.35387903
      0.81216667	     -7.51807581	      3.80041137	      1.37819703	     -0.36269546	      1.06884844	      0.30217077	     15.39722066	     -1.53188767	      1.36218977	    -18.21496289	     11.46864892	     -4.89822829	      4.84665522	     26.85150816	     -0.17282841	     -6.28913771	    -64.25494055	     11.05490636	      5.50772846	      2.70691591	    -11.68682806	     -0.07628642	      2.53377483
      0.81633333	     -7.45802607	      3.90080376	      1.24730891	     -0.35780232	      1.06937606	      0.30256284	     14.95350656	     -1.60246437	      1.42663162	    -17.99585741	     11.61766831	     -4.78060920	      4.82894177	     27.18487126	     -0.12340681	     -6.49894856	    -63.57292792	     11.28207855	      5.73643953	      2.76100796	    -11.74334284	     -0.27206342	      2.79051267
      0.82050000	     -7.42981433	      4.00576687	      1.11651526	     -0.35291121	      1.06981592	      0.30293203	     14.55104260	     -1.68084615	      1.49740393	    -17.79077487	     11.73399303	     -4.70277292	      4.81997579	     27.53925483	     -0.06491034	     -6.70514034	    -62.85012559	     11.49592014	      5.94227102	      2.79237019	    -11.75188747	     -0.43538877	      2.90182563
      0.82466667	     -7.37527010	      4.10092647	      0.98635066	     -0.34802821	      1.07026983	      0.30329415	     14.11699504	     -1.75096415	      1.56237332	    -17.57735192	     11.86917102	     -4.60974813	      4.81024079	     27.85446183	     -0.01710047	     -6.90306913	    -62.09374713	     11.69109530	      6.14895543	      2.82565136	    -11.79886763	     -0.60026576	      3.06947669
      0.82883333	     -7.34652437	      4.18723987	      0.86468463	     -0.34315664	      1.07063193	      0.30362339	     13.71327968	     -1.81663600	      1.61738057	    -17.36922444	     12.00418943	     -4.51621966	      4.80075534	     28.19089456	      0.02864943	     -7.08226032	    -61.31088897	     11.86533106	      6.32645899	      2.85672974	    -11.81684064	     -0.75360644	      3.23246234
      0.83300000	     -7.29959793	      4.26532168	      0.74662659	     -0.33830387	      1.07097580	      0.30392708	     13.29048951	     -1.87820710	      1.65440637	    -17.16032696	     12.17041898	     -4.38325379	      4.78232309	     28.50009665	      0.07043277	     -7.24747930	    -60.50109697	     12.01868216	      6.48696435	      2.90526280	    -11.86246875	     -0.90783573	      3.47471990
      0.83716667	     -7.28770365	      4.34830266	      0.63322054	     -0.33345593	      1.07123016	      0.30421118	     12.91135842	     -1.94728037	      1.70038085	    -16.96398980	     12.29535316	     -4.30304969	      4.77265659	     28.83310006	      0.12353092	     -7.39886213	    -59.65117578	     12.15849240	      6.62809687	      2.93173055	    -11.85745494	     -1.04288793	      3.56435110
      0.84133333	     -7.23108367	      4.41156140	      0.52325454	     -0.32862521	      1.07152010	      0.30447352	     12.47989090	     -1.99934128	      1.72292791	    -16.75826476	     12.46203108	     -4.17607554	      4.75551147	     29.11043846	      0.15899374	     -7.53457799	    -58.77904409	     12.27617330	      6.75063226	      2.97188761	    -11.91640509	     -1.16887196	      3.75165742
      0.84550000	     -7.22766342	      4.48007131	      0.42274153	     -0.32380122	      1.07167707	      0.30470410	     12.11187259	     -2.05982966	      1.75453535	    -16.56650971	     12.58916868	     -4.09358897	      4.74637374	     29.43317812	      0.21098652	     -7.64638545	    -57.87143671	     12.38022225	      6.85531825	      2.99352098	    -11.90911540	     -1.28403996	      3.83302638
      0.84966667	     -7.19367704	      4.53998654	      0.32362267	     -0.31899545	      1.07185097	      0.30491796	     11.71196716	     -2.11471908	      1.76996651	    -16.37517922	     12.74460485	     -3.98332394	      4.73566575	     29.71213071	      0.25649680	     -7.74705053	    -56.93469499	     12.46251158	      6.93770031	      3.01743185	    -11.94416042	     -1.39502552	      3.95662423
      0.85383333	     -7.18529401	      4.57329397	      0.23600682	     -0.31419814	      1.07192861	      0.30509029	     11.33652887	     -2.14430942	      1.77624642	    -16.17905205	     12.89544665	     -3.87573255	      4.72375449	     30.01456849	      0.28319150	     -7.81768194	    -55.98472626	     12.53379243	      6.99761769	      3.04117191	    -11.94985844	     -1.47207419	      4.07810576
      0.85800000	     -7.16457987	      4.61969010	      0.15280395	     -0.30941568	      1.07199899	      0.30524466	     10.95307163	     -2.19169495	      1.77335893	    -15.99387533	     13.05070215	     -3.76792232	      4.71283569	     30.28713260	      0.33192913	     -7.87180031	    -54.99320698	     12.57962119	      7.02485215	      3.06112076	    -11.97288243	     -1.55952578	      4.17246609
      0.86216667	     -7.17366166	      4.64709225	      0.07430181	     -0.30464252	      1.07195546	      0.30537108	     10.60616066	     -2.22125888	      1.76217974	    -15.81784957	     13.21673643	     -3.64626006	      4.70032407	     30.58525545	      0.36497431	     -7.90747630	    -53.98642131	     12.61476959	      7.02895134	      3.08265377	    -11.96163594	     -1.62427768	      4.27550442
      0.86633333	     -7.16805060	      4.66396675	      0.00589597	     -0.29988290	      1.07191584	      0.30546121	     10.23813437	     -2.24290375	      1.74368253	    -15.63166106	     13.37157532	     -3.53417231	      4.68903949	     30.85551435	      0.39808429	     -7.91473790	    -52.95061281	     12.63476004	      7.01152196	      3.10057074	    -11.97433229	     -1.67196923	      4.35589334
      0.87050000	     -7.18018494	      4.67226617	     -0.06016580	     -0.29513119	      1.07179743	      0.30553223	      9.89493971	     -2.25675861	      1.71975907	    -15.45818704	     13.53430379	     -3.41930943	      4.67687463	     31.13435480	      0.42740007	     -7.90435656	    -51.89236607	     12.63888461	      6.96168391	      3.11852247	    -11.96664331	     -1.70612238	      4.43344673
      0.87466667	     -7.20230055	      4.67425584	     -0.11909258	     -0.29038917	      1.07160724	      0.30557822	      9.56544570	     -2.26671774	      1.68595099	    -15.29260926	     13.70511577	     -3.29537184	      4.66383982	     31.41315076	      0.45600569	     -7.87399285	    -50.81124991	     12.63270878	      6.88586619	      3.13676004	    -11.94744145	     -1.73324128	      4.50118536
      0.87883333	     -7.20310227	      4.66351247	     -0.17187869	     -0.28566000	      1.07143024	      0.30558807	      9.20859656	     -2.26601788	      1.64398163	    -15.11733838	     13.86992997	     -3.17177907	      4.65010533	     31.65684677	      0.48073586	     -7.82214270	    -49.70526855	     12.61355479	      6.78809685	      3.15438824	    -11.96597936	     -1.73856728	      4.56054266
      0.88300000	     -7.24178079	      4.60887733	     -0.21509132	     -0.28091421	      1.07112499	      0.30559836	      8.87933459	     -2.21272074	      1.63107798	    -14.91984239	     14.02389538	     -3.09466775	      4.64643214	     31.94050188	      0.45602433	     -7.75370596	    -48.60740629	     12.62746870	      6.74750871	      3.16027200	    -11.91132561	     -1.69108531	      4.59513893
      0.88716667	     -7.25664336	      4.61286402	     -0.26487486	     -0.27621256	      1.07085598	      0.30555817	      8.55556103	     -2.23447394	      1.56577722	    -14.78190556	     14.19183863	     -2.95905123	      4.63173381	     32.16575945	      0.51321098	     -7.66321229	    -47.42948418	     12.54854474	      6.52950534	      3.17518595	    -11.94111330	     -1.70859935	      4.64421894
      0.89133333	     -7.30530264	      4.57245161	     -0.30348786	     -0.27149612	      1.07046174	      0.30550013	      8.26093326	     -2.20655481	      1.50307667	    -14.63593753	     14.37127509	     -2.81370002	      4.61567537	     32.42650460	      0.52479833	     -7.54852087	    -46.26066219	     12.50151953	      6.35981214	      3.19331262	    -11.90016705	     -1.67482109	      4.68105546
      0.89550000	     -7.33731114	      4.52629811	     -0.34061887	     -0.26678333	      1.07006202	      0.30543207	      7.94624382	     -2.17255841	      1.44733339	    -14.48566710	     14.54563131	     -2.68377351	      4.59949063	     32.65482984	      0.53272053	     -7.42511060	    -45.06767406	     12.45149881	      6.18806902	      3.21056799	    -11.88404158	     -1.63327930	      4.70566957
      0.89966667	     -7.38030029	      4.46505769	     -0.37343907	     -0.26207025	      1.06960359	      0.30534445	      7.64177575	     -2.12303213	      1.38846617	    -14.33463890	     14.71846018	     -2.55516797	      4.58142935	     32.88507972	      0.52873295	     -7.28420838	    -43.86012054	     12.39540730	      5.99743206	      3.22895217	    -11.85986262	     -1.56845769	      4.72406129
